<svg width="24" height="24" viewBox="0 0 24 24" fill="none" xmlns="http://www.w3.org/2000/svg">
<g clip-path="url(#clip0_3077_316)">
<path d="M23.4171 10.5857L21.7802 8.94915C21.3917 8.56067 21.0734 7.79296 21.0734 7.2424V4.9279C21.0734 3.82691 20.174 2.92747 19.0732 2.92689H16.7578C16.2079 2.92689 15.4393 2.60796 15.0508 2.21976L13.4142 0.58321C12.6366 -0.194403 11.3634 -0.194403 10.5858 0.58321L8.94922 2.22094C8.56039 2.60942 7.79092 2.92747 7.24218 2.92747H4.92768C3.82814 2.92747 2.92754 3.82691 2.92754 4.9279V7.24246C2.92754 7.79085 2.60925 8.56096 2.22071 8.94921L0.583863 10.5858C-0.194336 11.3634 -0.194336 12.6366 0.583863 13.4154L2.22071 15.052C2.60949 15.4405 2.92754 16.2103 2.92754 16.7587V19.0733C2.92754 20.1731 3.82814 21.0737 4.92768 21.0737H7.24223C7.79215 21.0737 8.56074 21.392 8.94928 21.7803L10.5858 23.4174C11.3634 24.1944 12.6367 24.1944 13.4143 23.4174L15.0508 21.7803C15.4397 21.3918 16.208 21.0737 16.7579 21.0737H19.0733C20.174 21.0737 21.0734 20.1731 21.0734 19.0733V16.7587C21.0734 16.2079 21.392 15.4402 21.7803 15.052L23.4171 13.4154C24.1941 12.6366 24.1941 11.3633 23.4171 10.5857ZM10.4124 16.5003L5.99961 12.087L7.41386 10.673L10.4127 13.6719L16.586 7.50016L17.9998 8.91411L10.4124 16.5003Z" fill="#2DB155"/>
</g>
<defs>
<clipPath id="clip0_3077_316">
<rect width="24" height="24" fill="white"/>
</clipPath>
</defs>
</svg>
